<?xml version="1.0" encoding="UTF-8"?>
<svg width="100pt" height="100pt" version="1.1" viewBox="0 0 100 100" xmlns="http://www.w3.org/2000/svg">
 <path d="m68.75 57.578c-4.9727 4.8828-11.703 7.5586-18.672 7.4219h-5.7695c-0.64453-0.042969-1.2695 0.21484-1.6992 0.69922-4.3281 4.5586-8.6992 9.0898-13 13.629-0.8125 0.96094-2.0039 1.5195-3.2578 1.5312-1.0508 0-2.0547-0.42578-2.7891-1.1797-0.73047-0.75391-1.1289-1.7695-1.1016-2.8203v-11.328c0-0.71875-0.19922-1-0.92969-1.1406-10.66-2.7383-17.16-9.6914-20.32-20-0.50781-1.9492-0.91016-3.9219-1.2109-5.9102v-5.4805c0.19141-1.7461 0.52734-3.4688 1-5.1602 2.6094-9.4805 8.2305-16.352 17.59-19.918 2.6914-1 5.5391-1.4961 8.4102-1.4727h22.609c10.52-0.050781 18.391 4.6289 23.789 13.402 3.5508 5.9023 5.0234 12.828 4.1797 19.664-0.83984 6.8398-3.9492 13.199-8.8281 18.062z"/>
 <path d="m92.539 42.859c-2.7773-2.5-6.207-4.1602-9.8906-4.7891 0 0.26953-0.070313 0.42969-0.089844 0.57813-0.33203 4.8281-1.6953 9.5273-4 13.781-6.1797 11.199-15.551 17.32-28.539 17.48h-4.1094c-1.1211 0-1.6211 0.85938-1.0508 1.7891 3.1602 5.1602 7.5781 8.6914 13.629 9.7383v0.003906c2.6172 0.32031 5.2539 0.44922 7.8906 0.38672 0.61719-0.035156 1.2148 0.21094 1.6211 0.67188 1.7617 1.8789 3.5586 3.7188 5.3398 5.5781 1.3711 1.4297 2.7305 2.8906 4.1406 4.3008 1.2422 1.4258 3.4023 1.5781 4.8281 0.33984 0.83984-0.76172 1.2812-1.8672 1.1914-3v-7.1211c0-0.85156 0.23047-1.1484 1.0703-1.4688 2.0742-0.66016 4.0625-1.5664 5.918-2.6992 11.781-8.1016 12.812-26.008 2.0508-35.57z"/>
</svg>
