<?xml version="1.0" encoding="UTF-8"?>
<svg width="100pt" height="100pt" version="1.1" viewBox="0 0 100 100" xmlns="http://www.w3.org/2000/svg">
 <path d="m25.699 26.699h-9.5c-4.8008 0-8.6992 3.8984-8.6992 8.6992v14.102c0 2.1992 1.5 4.1016 3.6016 4.6992l0.80078 0.19922c1 0.30078 1.6992 1.1992 1.6992 2.1992v20.898c0 2.1992 1.8008 4 4 4h6.6992c2.1992 0 4-1.8008 4-4v-20.895c0-1.1016 0.69922-2 1.6992-2.1992l0.80078-0.19922v-11.504c0-3.5 1.3008-6.8008 3.3984-9.3008-0.89844-3.7969-4.3984-6.6992-8.5-6.6992z"/>
 <path d="m31.5 13.102c0 5.8516-4.7461 10.598-10.602 10.598-5.8516 0-10.598-4.7461-10.598-10.598 0-5.8555 4.7461-10.602 10.598-10.602 5.8555 0 10.602 4.7461 10.602 10.602z"/>
 <path d="m83.898 26.699h-9.6016c-4.1016 0-7.6016 2.8984-8.5 6.6992 2.1016 2.5 3.3984 5.6992 3.3984 9.3008v11.5l0.80078 0.19922c1 0.30078 1.6992 1.1992 1.6992 2.1992v20.898c0 2.1992 1.8008 4 4 4h6.6992c2.1992 0 4-1.8008 4-4l0.003907-20.895c0-1.1016 0.69922-2 1.6992-2.1992l0.80078-0.19922c2.1016-0.60156 3.6016-2.5 3.6016-4.6992v-14.105c0.10156-4.7969-3.8008-8.6992-8.6016-8.6992z"/>
 <path d="m89.699 13.102c0 5.8516-4.7461 10.598-10.598 10.598-5.8555 0-10.602-4.7461-10.602-10.598 0-5.8555 4.7461-10.602 10.602-10.602 5.8516 0 10.598 4.7461 10.598 10.602z"/>
 <path d="m55 33.102h-10c-5.3008 0-9.6016 4.3008-9.6016 9.6016v15.102c0 2.3984 1.6016 4.5 3.8984 5.1016l0.89844 0.19922c1.1016 0.30078 1.8984 1.3008 1.8984 2.3984v27.699c0 2.3984 2 4.3008 4.3008 4.3008h7.1992c2.3984 0 4.3008-2 4.3008-4.3008l0.003907-27.703c0-1.1016 0.80078-2.1016 1.8984-2.3984l0.89844-0.19922c2.3008-0.60156 3.8984-2.6992 3.8984-5.1016l0.007812-15.102c0-5.3008-4.3008-9.5977-9.6016-9.5977z"/>
 <path d="m61.5 18.398c0 6.3516-5.1484 11.5-11.5 11.5s-11.5-5.1484-11.5-11.5c0-6.3516 5.1484-11.5 11.5-11.5s11.5 5.1484 11.5 11.5z"/>
</svg>
