<?xml version="1.0" encoding="UTF-8"?>
<svg width="100pt" height="100pt" version="1.1" viewBox="0 0 100 100" xmlns="http://www.w3.org/2000/svg">
 <path d="m50 23.586c-16.27 0-22.801 12.574-22.801 21.418 0 12.918 10.117 22.449 12.438 32.473h20.727c2.3203-10.02 12.438-19.555 12.438-32.473 0-8.8438-6.5312-21.418-22.801-21.418z"/>
 <path d="m39.637 87.16c0 3 1.1797 4.1797 4.1797 4.1797h0.42578l0.41016 1.2305c0.625 1.8789 1.3906 2.4297 3.3672 2.4297h3.9648c1.9766 0 2.7383-0.55078 3.3633-2.4258l0.41016-1.2305h0.42578c3.0039 0 4.1797-1.1797 4.1797-4.1797v-6.2539h-20.727z"/>
 <path d="m50 18.266c1.2617 0 2.0703-0.8125 2.0703-2.0742v-9.1211c0-1.2578-0.80859-2.0703-2.0703-2.0703-1.2578 0-2.0703 0.8125-2.0703 2.0742v9.1211c0 1.2578 0.8125 2.0703 2.0703 2.0703z"/>
 <path d="m68.312 23.727c0.99219 0.77344 2.1367 0.63281 2.9102-0.35547l5.6133-7.1875c0.77734-0.99219 0.63672-2.1367-0.35547-2.9102-0.99219-0.77734-2.1367-0.63672-2.9102 0.35547l-5.6133 7.1875c-0.77734 0.99219-0.63672 2.1367 0.35547 2.9102z"/>
 <path d="m91.156 36.371c-0.30469-1.2227-1.2891-1.8164-2.5117-1.5117l-8.8516 2.207c-1.2227 0.30469-1.8125 1.2891-1.5117 2.5117 0.30469 1.2227 1.2891 1.8125 2.5117 1.5117l8.8477-2.207c1.2266-0.30078 1.8203-1.2891 1.5156-2.5117z"/>
 <path d="m86.758 60.48-8.332-3.7109c-1.1484-0.51172-2.2266-0.097656-2.7344 1.0508-0.51172 1.1523-0.10156 2.2227 1.0508 2.7383l8.3281 3.707c1.1484 0.51562 2.2266 0.10156 2.7344-1.0508 0.51562-1.1484 0.10156-2.2227-1.0469-2.7344z"/>
 <path d="m28.777 23.371c0.77344 0.99219 1.918 1.1328 2.9102 0.35547 0.99219-0.77734 1.1328-1.918 0.35547-2.9102l-5.6133-7.1875c-0.77344-0.99219-1.918-1.1328-2.9102-0.35547-0.99219 0.77344-1.1328 1.918-0.35547 2.9102z"/>
 <path d="m21.715 39.582c0.30469-1.2227-0.28906-2.207-1.5117-2.5117l-8.8477-2.207c-1.2227-0.30469-2.207 0.28906-2.5117 1.5117s0.28906 2.207 1.5117 2.5117l8.8477 2.207c1.2227 0.30078 2.207-0.28906 2.5117-1.5117z"/>
 <path d="m21.574 56.77-8.332 3.7109c-1.1523 0.51172-1.5625 1.5859-1.0508 2.7344 0.51172 1.1523 1.5859 1.5625 2.7344 1.0508l8.332-3.7109c1.1523-0.51172 1.5625-1.5859 1.0508-2.7344-0.50781-1.1484-1.582-1.5586-2.7344-1.0508z"/>
</svg>
