<?xml version="1.0" encoding="UTF-8"?>
<svg width="100pt" height="100pt" version="1.1" viewBox="0 0 100 100" xmlns="http://www.w3.org/2000/svg">
 <path d="m44.684 80.883c-16.758-8.5703-39.824-33.75-41.27-48.906-0.60156-6.3242 1.3984-12.242 5.6328-16.664 4.2578-4.4414 10.516-7.0234 16.297-6.7031 10.988 0.57812 17.383 9.6758 17.441 9.7617l1.8984 2.7773 1.9102-2.7695c0.0625-0.09375 6.457-9.1875 17.445-9.7656 5.8047-0.31641 12.039 2.2656 16.297 6.7031 4.2344 4.418 6.2383 10.336 5.6367 16.66-0.55469 5.7891-4.4805 13.645-11.043 22.164-2.0273-1.875-5.4141-4.1836-10.059-4.4297-4.375-0.23047-8.8633 1.6914-11.902 5.0312-2.8438 3.125-4.1797 7.2422-3.7695 11.578 0.26953 2.8203 1.6133 6.0625 3.6055 9.3672-2.125 1.5078-5.4492 3.7695-8.1211 5.1953zm51.949-15c-0.67578 7.0977-12.027 20.5-21.418 25.531-9.3906-5.0312-20.742-18.438-21.418-25.531-0.36719-3.8828 1.2031-6.5117 2.5898-8.0352 2.0195-2.2188 5.6133-3.6719 8.2461-3.5273 5.4375 0.29297 8.6523 4.8203 8.6758 4.8555l1.8906 2.7578 1.9141-2.75c0.03125-0.046875 3.25-4.5781 8.6875-4.8633 2.9766-0.16797 6.1172 1.1914 8.2422 3.5312 1.3867 1.5195 2.9609 4.1523 2.5898 8.0312z"/>
</svg>
